# xmcd
#
# Track frame offsets:
#	150
#	18109
#	31786
#	43209
#	56555
#	69675
#	82125
#	96444
#	108421
#	121781
#	135463
#	147642
#	157479
#	167067
#	178329
#	186456
#	194425
#	203977
#	213674
#	223521
#	233133
#	244842
#	255759
#	267800
#	280568
#	291287
#	306118
#
# Disc length: 4383 seconds
#
# Revision: 1
# Processed by: cddbd v1.5.2PL0 Copyright (c) Steve Scherf et al.
# Submitted via: EasyCDDAExtractor 12.0.5.1
#
DISCID=a2111d1b
DTITLE=Cristy Lane  - 27 Christmas Classics
DYEAR=2005
DGENRE=Christmas
TTITLE0=The Man from Galilee 
TTITLE1=Silent Night
TTITLE2=Away in a Manger
TTITLE3=Pretty Paper
TTITLE4=I'll Be Home for Christmas
TTITLE5=Silver Bells
TTITLE6=White Christmas 
TTITLE7=Old Christmas Card 
TTITLE8=Blue Christmas 
TTITLE9=Shake Me I Rattle 
TTITLE10=A Little Bit Colder 
TTITLE11=O Holy Night
TTITLE12=The First Noel 
TTITLE13=What Child is this
TTITLE14=Up on The House Top
TTITLE15=Jimgle Bells
TTITLE16=Jolly Old St. Nicholas
TTITLE17=Joy to the World
TTITLE18=Hark! The Herald Angels Sing
TTITLE19=God Rest Ye Merry Gentlemen
TTITLE20=O Come All Ye Faithful
TTITLE21=O Little Town of Bethlehem 
TTITLE22=This is Christmas
TTITLE23=The Son of God is Born 
TTITLE24=It Came UPon a Midnight Clear
TTITLE25=Do You Hear What I Hear 
TTITLE26=His Father's Eyes
EXTD=
EXTT0=
EXTT1=
EXTT2=
EXTT3=
EXTT4=
EXTT5=
EXTT6=
EXTT7=
EXTT8=
EXTT9=
EXTT10=
EXTT11=
EXTT12=
EXTT13=
EXTT14=
EXTT15=
EXTT16=
EXTT17=
EXTT18=
EXTT19=
EXTT20=
EXTT21=
EXTT22=
EXTT23=
EXTT24=
EXTT25=
EXTT26=
PLAYORDER=
